# xmcd
#
# Track frame offsets:
#	182
#	10052
#	22450
#	33585
#	43855
#	62072
#	75097
#	88440
#	99640
#	109762
#	123227
#	135255
#	146042
#	159482
#	171535
#	182912
#	195960
#	208845
#	223612
#	238405
#	251092
#
# Disc length: 3503 seconds
#
# Revision: 0
# Processed by: cddbd v1.4PL0 Copyright (c) Steve Scherf et al.
# Submitted via: EasyCDDAExtractor 4.6.0.1
#
DISCID=360dad15
DTITLE=Howlin' Wolf - Going Down Slow
DYEAR=1992
DGENRE=Blues
TTITLE0=Down In The Bottom
TTITLE1=Little Baby
TTITLE2=The Red Rooster
TTITLE3=Shake For Me
TTITLE4=Going Down Slow
TTITLE5=I Ain't Superstitious
TTITLE6=Just Like I Treat You
TTITLE7=You'll Be Mine
TTITLE8=Do The Do
TTITLE9=Tail Dragger
TTITLE10=Built For Comfort
TTITLE11=Hidden Charms
TTITLE12=Three Hundred Pounds Of Joy
TTITLE13=Louise
TTITLE14=My Country Sugar Mama
TTITLE15=Love Me Darling
TTITLE16=Killing Floor
TTITLE17=Don't Laugh At Me
TTITLE18=I Walked From Dallas
TTITLE19=Tell Me What I've Done
TTITLE20=Oooh Baby (Hold Me)
EXTD=
EXTT0=
EXTT1=
EXTT2=
EXTT3=
EXTT4=
EXTT5=
EXTT6=
EXTT7=
EXTT8=
EXTT9=
EXTT10=
EXTT11=
EXTT12=
EXTT13=
EXTT14=
EXTT15=
EXTT16=
EXTT17=
EXTT18=
EXTT19=
EXTT20=
PLAYORDER=
